<svg height="512pt" viewBox="0 -22 512.00001 512" width="512pt" xmlns="http://www.w3.org/2000/svg"><path d="m371.511719 201.648438h-86.980469v-69.0625c0-3.386719-2.746094-6.128907-6.128906-6.128907h-53.417969c-3.382813 0-6.125 2.746094-6.125 6.128907v69.0625h-86.984375c-3.386719 0-6.128906 2.742187-6.128906 6.125v53.417968c0 3.386719 2.746094 6.128906 6.128906 6.128906h86.980469v195.421876c0 3.386718 2.746093 6.128906 6.128906 6.128906h53.417969c3.382812 0 6.128906-2.742188 6.128906-6.128906v-195.421876h86.980469c3.386719 0 6.128906-2.742187 6.128906-6.128906v-53.414062c0-3.386719-2.742187-6.128906-6.128906-6.128906zm0 0" fill="#ffc143"/><g fill="#ffb509"><path d="m377.636719 207.777344v18.066406h-102.929688c-6.652343 0-12.046875-5.390625-12.046875-12.042969v-87.339843h15.738282c3.386718 0 6.128906 2.746093 6.128906 6.128906v69.058594h86.980468c3.386719 0 6.128907 2.742187 6.128907 6.128906zm0 0"/><path d="m251.691406 78.484375c-4.121094 0-7.464844-3.34375-7.464844-7.46875v-63.546875c0-4.125 3.34375-7.46875 7.464844-7.46875 4.125 0 7.46875 3.34375 7.46875 7.46875v63.546875c0 4.125-3.34375 7.46875-7.46875 7.46875zm0 0"/><path d="m193.195312 49.46875c-3.230468 0-6.207031-2.109375-7.164062-5.367188-1.238281-4.226562-2.28125-8.386718-3.292969-12.414062-1.164062-4.640625-2.261719-9.027344-3.617187-13.390625-1.222656-3.941406.980468-8.125 4.917968-9.347656 3.941407-1.222657 8.125.980469 9.347657 4.921875 1.472656 4.753906 2.675781 9.550781 3.839843 14.183594.972657 3.882812 1.980469 7.898437 3.136719 11.839843 1.160157 3.957031-1.105469 8.109375-5.0625 9.269531-.703125.207032-1.410156.304688-2.105469.304688zm0 0"/><path d="m202.695312 84.9375c-3.296874 0-6.3125-2.203125-7.207031-5.539062l-3.417969-12.75c-1.066406-3.984376 1.296876-8.078126 5.28125-9.144532 3.984376-1.074218 8.078126 1.292969 9.144532 5.277344l3.417968 12.75c1.066407 3.984375-1.296874 8.078125-5.28125 9.148438-.644531.171874-1.296874.257812-1.9375.257812zm0 0"/><path d="m129.691406 56.453125c-2.582031 0-5.089844-1.339844-6.472656-3.738281l-4.414062-7.640625c-2.058594-3.570313-.835938-8.140625 2.738281-10.199219 3.570312-2.0625 8.136719-.835938 10.199219 2.734375l4.410156 7.640625c2.0625 3.570312.839844 8.136719-2.734375 10.199219-1.175781.679687-2.460938 1.003906-3.726563 1.003906zm0 0"/><path d="m157.054688 103.84375c-2.582032 0-5.089844-1.339844-6.476563-3.734375l-13.859375-24.007813c-2.0625-3.574218-.839844-8.140624 2.730469-10.203124 3.574219-2.058594 8.140625-.839844 10.203125 2.734374l13.863281 24.007813c2.0625 3.574219.835937 8.140625-2.734375 10.203125-1.175781.679688-2.460938 1-3.726562 1zm0 0"/><path d="m117.84375 133.925781c-1.910156 0-3.820312-.730469-5.277344-2.1875l-32.484375-32.480469c-2.914062-2.917968-2.914062-7.644531 0-10.5625 2.917969-2.914062 7.644531-2.914062 10.5625 0l32.480469 32.480469c2.917969 2.917969 2.917969 7.648438 0 10.5625-1.457031 1.457031-3.371094 2.1875-5.28125 2.1875zm0 0"/><path d="m87.753906 173.128906c-1.265625 0-2.550781-.320312-3.726562-1l-55.03125-31.773437c-3.574219-2.0625-4.796875-6.632813-2.734375-10.203125 2.0625-3.570313 6.628906-4.792969 10.199219-2.734375l55.035156 31.777343c3.570312 2.0625 4.796875 6.628907 2.734375 10.199219-1.382813 2.394531-3.894531 3.734375-6.476563 3.734375zm0 0"/><path d="m22.199219 206.28125c-.640625 0-1.292969-.082031-1.941407-.257812l-14.71875-3.945313c-3.984374-1.066406-6.347656-5.160156-5.28125-9.144531 1.066407-3.984375 5.160157-6.351563 9.144532-5.28125l14.722656 3.945312c3.984375 1.066406 6.347656 5.164063 5.28125 9.144532-.894531 3.339843-3.914062 5.539062-7.207031 5.539062zm0 0"/><path d="m68.855469 218.785156c-.636719 0-1.289063-.082031-1.9375-.257812l-10.296875-2.757813c-3.984375-1.066406-6.347656-5.164062-5.28125-9.148437s5.164062-6.351563 9.144531-5.28125l10.300781 2.761718c3.984375 1.066407 6.347656 5.160157 5.28125 9.144532-.894531 3.339844-3.914062 5.539062-7.210937 5.539062zm0 0"/><path d="m62.402344 267.773438h-43.859375c-4.125 0-7.464844-3.339844-7.464844-7.464844s3.339844-7.46875 7.464844-7.46875h43.859375c4.125 0 7.46875 3.34375 7.46875 7.46875s-3.34375 7.464844-7.46875 7.464844zm0 0"/><path d="m449.921875 267.773438h-8.9375c-4.125 0-7.46875-3.339844-7.46875-7.464844s3.34375-7.46875 7.46875-7.46875h8.9375c4.125 0 7.464844 3.34375 7.464844 7.46875s-3.339844 7.464844-7.464844 7.464844zm0 0"/><path d="m504.53125 267.773438h-14.722656c-4.125 0-7.464844-3.339844-7.464844-7.464844s3.339844-7.46875 7.464844-7.46875h14.722656c4.125 0 7.46875 3.34375 7.46875 7.46875s-3.34375 7.464844-7.46875 7.464844zm0 0"/><path d="m434.527344 218.785156c-3.359375 0-6.410156-2.285156-7.246094-5.695312-.980469-4.003906 1.46875-8.046875 5.476562-9.027344 5.464844-1.339844 11.195313-2.933594 16.738282-4.476562 5.207031-1.445313 10.589844-2.945313 15.808594-4.246094 3.996093-1 8.054687 1.433594 9.054687 5.4375.996094 4-1.4375 8.054687-5.4375 9.054687-5.023437 1.253907-10.3125 2.722657-15.421875 4.144531-5.652344 1.574219-11.5 3.199219-17.1875 4.59375-.597656.144532-1.195312.214844-1.785156.214844zm0 0"/><path d="m487.019531 204.71875c-3.296875 0-6.316406-2.199219-7.207031-5.535156-1.070312-3.984375 1.292969-8.078125 5.277344-9.148438l8.894531-2.382812c3.984375-1.070313 8.078125 1.296875 9.148437 5.28125 1.066407 3.984375-1.296874 8.078125-5.28125 9.144531l-8.894531 2.386719c-.648437.171875-1.296875.253906-1.9375.253906zm0 0"/><path d="m415.632812 173.128906c-2.582031 0-5.09375-1.339844-6.476562-3.734375-2.0625-3.570312-.835938-8.136719 2.734375-10.199219l11.863281-6.851562c3.570313-2.0625 8.140625-.839844 10.203125 2.734375 2.0625 3.570313.835938 8.136719-2.734375 10.199219l-11.863281 6.851562c-1.175781.679688-2.460937 1-3.726563 1zm0 0"/><path d="m454.433594 150.726562c-2.582032 0-5.089844-1.335937-6.476563-3.734374-2.0625-3.570313-.835937-8.136719 2.734375-10.199219l16.234375-9.375c3.570313-2.058594 8.136719-.835938 10.199219 2.734375 2.0625 3.570312.839844 8.140625-2.730469 10.203125l-16.234375 9.371093c-1.175781.679688-2.460937 1-3.726562 1zm0 0"/><path d="m385.542969 133.925781c-1.910157 0-3.824219-.730469-5.28125-2.1875-2.917969-2.917969-2.917969-7.644531 0-10.5625l44.933593-44.933593c2.917969-2.914063 7.644532-2.914063 10.5625 0 2.917969 2.917968 2.917969 7.644531 0 10.5625l-44.933593 44.933593c-1.460938 1.457031-3.371094 2.1875-5.28125 2.1875zm0 0"/><path d="m346.332031 103.84375c-1.257812 0-2.535156-.316406-3.703125-.988281-3.582031-2.050781-4.820312-6.613281-2.769531-10.191407 1.589844-2.777343 3.132813-5.582031 4.625-8.292968 3.328125-6.039063 6.765625-12.28125 10.96875-18.695313 2.261719-3.449219 6.894531-4.410156 10.339844-2.152343 3.449219 2.261718 4.414062 6.894531 2.152343 10.34375-3.890624 5.929687-7.039062 11.652343-10.375 17.707031-1.523437 2.765625-3.097656 5.628906-4.75 8.515625-1.378906 2.40625-3.898437 3.753906-6.488281 3.753906zm0 0"/><path d="m371.753906 59.8125c-1.265625 0-2.550781-.324219-3.726562-1.003906-3.574219-2.058594-4.796875-6.628906-2.734375-10.199219l6.351562-11c2.0625-3.574219 6.628907-4.796875 10.199219-2.738281 3.574219 2.0625 4.796875 6.628906 2.738281 10.203125l-6.355469 11.003906c-1.382812 2.394531-3.890624 3.734375-6.472656 3.734375zm0 0"/><path d="m300.691406 84.9375c-.640625 0-1.292968-.085938-1.9375-.257812-3.984375-1.066407-6.347656-5.164063-5.28125-9.148438l8.40625-31.378906c1.066406-3.984375 5.164063-6.351563 9.148438-5.28125 3.984375 1.066406 6.347656 5.164062 5.277344 9.148437l-8.40625 31.378907c-.894532 3.335937-3.910157 5.539062-7.207032 5.539062zm0 0"/></g></svg>